<?xml version="1.0" encoding="UTF-8" standalone="no"?>
<svg
   width="512"
   height="512"
   version="1.1"
   viewBox="0 0 512 512"
   xml:space="preserve"
   id="svg1"
   sodipodi:docname="apple-touch-icon.svg"
   inkscape:version="1.4.2 (ebf0e940, 2025-05-08)"
   xmlns:inkscape="http://www.inkscape.org/namespaces/inkscape"
   xmlns:sodipodi="http://sodipodi.sourceforge.net/DTD/sodipodi-0.dtd"
   xmlns="http://www.w3.org/2000/svg"
   xmlns:svg="http://www.w3.org/2000/svg"><defs
   id="defs1" /><sodipodi:namedview
   id="namedview1"
   pagecolor="#ffffff"
   bordercolor="#000000"
   borderopacity="0.25"
   inkscape:showpageshadow="2"
   inkscape:pageopacity="0.0"
   inkscape:pagecheckerboard="0"
   inkscape:deskcolor="#d1d1d1"
   inkscape:zoom="1.625"
   inkscape:cx="239.69231"
   inkscape:cy="230.15385"
   inkscape:window-width="2200"
   inkscape:window-height="1277"
   inkscape:window-x="0"
   inkscape:window-y="25"
   inkscape:window-maximized="0"
   inkscape:current-layer="svg1" />
	  <style
   id="style1">
    @media (prefers-color-scheme: dark) {
      path {
        fill: white;
      }
      rect {
        fill: transparent;
      }
    }
  </style><rect
   style="fill:#ffffff;stroke-width:48;stroke-linecap:round;stroke-linejoin:round"
   id="rect2"
   width="512"
   height="512"
   x="0"
   y="0" /><path
   d="M 256,31 C 131.71386,31 31,131.71386 31,256 31,380.28614 131.71386,481 256,481 380.28614,481 481,380.28614 481,256 481,131.71386 380.28614,31 256,31 Z m 0,42.1875 c 101.6455,0 182.8125,81.16963 182.8125,182.8125 0,101.64287 -81.16963,182.8125 -182.8125,182.8125 C 154.35713,438.8125 73.1875,357.64287 73.1875,256 73.1875,154.35713 154.35713,73.1875 256,73.1875 Z M 171.625,143.5 A 28.125,28.125 0 0 0 143.5,171.625 28.125,28.125 0 0 0 171.625,199.75 H 312.25 c 16.06817,0 28.125,12.05683 28.125,28.125 0,16.06817 -12.05683,28.125 -28.125,28.125 h -28.125 v 56.25 h 28.125 c 46.25683,0 84.375,-38.11817 84.375,-84.375 0,-46.25683 -38.11817,-84.375 -84.375,-84.375 z m 0,112.5 v 28.125 56.25 28.125 A 28.125,28.125 0 0 0 199.75,396.625 28.125,28.125 0 0 0 227.875,368.5 V 312.25 284.125 256 Z"
   fill="#003f7d"
   stop-color="#000000"
   stroke-linecap="square"
   id="path1"
   style="stroke-width:0.999998" /></svg>
