<?xml version="1.0" encoding="UTF-8"?>
<svg width="512" height="512" version="1.1" viewBox="0 0 512 512" xml:space="preserve" xmlns="http://www.w3.org/2000/svg"><rect x="40" y="40" width="430" height="430" ry="215" fill="#fff"/><path d="m256 0c-141.41 0-256 114.59-256 256s114.59 256 256 256 256-114.59 256-256-114.59-256-256-256zm0 48c115.65 0 208 92.353 208 208s-92.353 208-208 208-208-92.353-208-208 92.353-208 208-208zm-96 80a32 32 0 0 0-32 32 32 32 0 0 0 32 32h160c18.282 0 32 13.718 32 32s-13.718 32-32 32h-32v64h32c52.63 0 96-43.37 96-96s-43.37-96-96-96h-160zm0 128v32 64 32a32 32 0 0 0 32 32 32 32 0 0 0 32-32v-64-32-32h-64z" fill="#003f7d" stop-color="#000000" stroke-linecap="square"/></svg>
